<?xml version="1.0" encoding="UTF-8"?> <svg xmlns="http://www.w3.org/2000/svg" id="Layer_2" version="1.1" viewBox="0 0 1169.1 314.4"><defs><style> .st0 { fill: #010101; } .st1 { fill: #e1052e; } </style></defs><polygon class="st1" points="650.8 64.9 757.2 143.8 757.2 85.2 645.5 2.3 645.5 2.3 604.6 2.3 604.4 2.3 604.4 83.1 498 4.2 498 62.8 609.7 145.7 609.8 145.7 650.6 145.7 650.8 145.7 650.8 64.9"></polygon><path class="st0" d="M102.6,119.1h-54.3l-8.4,26.6H3L54.7,2.3h41.4l51.6,143.4h-36.7l-8.4-26.6h0ZM94.2,92.5l-18.9-59.6-18.9,59.6h37.7Z"></path><path class="st0" d="M320,2.3v143.4h-35.2V60.5l-37.3,61.7h-12.9l-37.5-61.7v85.2h-35V2.3h36.9l42,69.5L282.9,2.3h37.1Z"></path><path class="st0" d="M455,53.8c0,33.8-25.8,49.6-57,49.6h-18.4v42.4h-35V2.3h53.5c35.7,0,57,20.5,57,51.4h0ZM419.4,53.8c0-11.1-7.8-18.2-21.3-18.2h-18.4v36.5h18.4c12.7,0,21.3-5.7,21.3-18.2h0Z"></path><path class="st0" d="M93.2,278.5v33H3.1v-143.4h88.3v33.2h-53.3v22.1h46.7v31.4h-46.7v23.8h55.1,0Z"></path><path class="st0" d="M202.4,278.5v33h-88.7v-143.4h35.2v110.4h53.5Z"></path><path class="st0" d="M311,278.5v33h-90.2v-143.4h88.3v33.2h-53.3v22.1h46.7v31.4h-46.7v23.8h55.1Z"></path><path class="st0" d="M426,267l29.3,19.3c-12.9,17.2-33.4,27.9-58,27.9-42.4,0-72.9-31.8-72.9-74.4s30.5-74.2,72.9-74.2,45.1,10.7,58,27.7l-29.3,19.3c-6.1-7.8-15.8-13.1-28.7-13.1-25,0-37.7,20.1-37.7,40.4s12.7,40.6,37.7,40.6,22.5-5.3,28.7-13.3h0Z"></path><path class="st0" d="M570.8,201.3h-33.6v110.2h-35v-110.2h-33.6v-33.2h102.2v33.2h0Z"></path><path class="st0" d="M670.6,311.5l-24.2-47.9h-22.1v47.9h-35v-143.4h55.1c36.5,0,55.1,20.9,55.1,49.6s-8.4,30.1-22.1,37.9l30.5,55.9h-37.3,0ZM624.3,234.1h20.1c10.2,0,19.7-4.1,19.7-16.4s-8-16.4-19.7-16.4h-20.1v32.8h0Z"></path><path class="st0" d="M757.3,168.1v143.4h-35v-143.4h35Z"></path><path class="st0" d="M878.4,267l29.3,19.3c-12.9,17.2-33.4,27.9-58,27.9-42.4,0-72.9-31.8-72.9-74.4s30.5-74.2,72.9-74.2,45.1,10.7,58,27.7l-29.3,19.3c-6.1-7.8-15.8-13.1-28.7-13.1-25,0-37.7,20.1-37.7,40.4s12.7,40.6,37.7,40.6,22.5-5.3,28.7-13.3h0Z"></path><path class="st0" d="M1014.4,284.9h-54.3l-8.4,26.6h-36.9l51.6-143.4h41.4l51.6,143.4h-36.7l-8.4-26.6h0ZM1006,258.2l-18.9-59.6-18.9,59.6h37.7Z"></path><path class="st0" d="M1162.6,278.5v33h-88.7v-143.4h35.2v110.4h53.5,0Z"></path></svg> 